<svg xmlns="http://www.w3.org/2000/svg" width="180" height="180" viewBox="0 0 180 180">
  <g id="favicon" transform="translate(16.256 28.5)">
    <rect id="長方形_41" data-name="長方形 41" width="180" height="180" transform="translate(-16.255 -28.5)" fill="#061944"/>
    <g id="グループ_75" data-name="グループ 75" transform="translate(6.964 -7.702)">
      <path id="パス_1" data-name="パス 1" d="M71.82,43.85V95.9h31.789V86.119H82.649V43.85Z" transform="translate(-23.68 -6.708)" fill="#fff"/>
      <path id="パス_6" data-name="パス 6" d="M176.858,123.1c0-.324-.081-.495-.251-.527a1.85,1.85,0,0,0-.219-.016h-.608l-4.728-11.508h-1.484l-4.4,11.508H163.89v.543h3.7c0-.324-.089-.495-.268-.527a1.848,1.848,0,0,0-.219-.016h-1.119l1.436-3.852h3.99l1.5,3.852h-1.419v.543h5.377Zm-5.693-5h-3.512l1.727-4.615,1.792,4.615Z" transform="translate(-131.36 5.882)" fill="#fff"/>
      <path id="パス_7" data-name="パス 7" d="M189.678,123.37v-8.11H186.15v.527h.981l-.016,5.053a2.381,2.381,0,0,1-1.152,2.076,1.506,1.506,0,0,1-.608.138q-1.131,0-1.338-1.338a4.151,4.151,0,0,1-.032-.56v-5.9H180.27v.527h1.168v5.036q.037,3.26,2.871,3.276a3.023,3.023,0,0,0,2.741-1.606c.041-.073.081-.154.122-.235l.105,1.638h3.585c0-.292-.081-.462-.251-.511Z" transform="translate(-134.692 5.086)" fill="#fff"/>
      <path id="パス_8" data-name="パス 8" d="M194.16,115.369h1.387v5.02c0,1.938.795,3,2.4,3.2.17.008.333.016.487.016a2.28,2.28,0,0,0,2.133-1,5.066,5.066,0,0,0,.438-1.338l-.543-.065c-.268,1.079-.665,1.671-1.184,1.776a1.27,1.27,0,0,1-.251.016c-.495,0-.795-.341-.892-1.03a3.6,3.6,0,0,1-.032-.511v-6.083h2.636v-.527H198.1V112.53l-2.555.406v1.906H194.16Z" transform="translate(-137.496 5.602)" fill="#fff"/>
      <path id="パス_9" data-name="パス 9" d="M206.2,119.466c0-1.865.227-3.066.689-3.585a1.488,1.488,0,0,1,1.184-.47,1.575,1.575,0,0,1,1.638,1.322,10.91,10.91,0,0,1,.235,2.668c0,1.955-.251,3.179-.762,3.682a1.676,1.676,0,0,1-2.741-.86,10.687,10.687,0,0,1-.251-2.757Zm1.979-4.566a4.364,4.364,0,0,0-4.72,4.493,4.65,4.65,0,0,0,8.248,2.928,4.708,4.708,0,0,0,1-2.976,4.26,4.26,0,0,0-1.59-3.512,4.729,4.729,0,0,0-2.944-.933Z" transform="translate(-139.414 5.154)" fill="#fff"/>
      <path id="パス_10" data-name="パス 10" d="M220.171,123.3H219.8l.032-5.174a2.343,2.343,0,0,1,1.03-2.076,1.188,1.188,0,0,1,.527-.138c.495,0,.852.316,1.062.933a2.9,2.9,0,0,1,.154.981v4.428q0,.827-.389,1a2.129,2.129,0,0,1-.511.049v.527h4.258c0-.308-.081-.47-.251-.511-.089-.008-.178-.016-.251-.016h-.341v-5.272c.089-1.119.446-1.809,1.079-2.076a1.411,1.411,0,0,1,.405-.065c.576,0,.965.341,1.184,1.014a3.709,3.709,0,0,1,.122.933v4.428c0,.551-.13.884-.373,1a2.129,2.129,0,0,1-.511.049v.527h4.582c0-.308-.089-.47-.268-.511-.081-.008-.162-.016-.235-.016h-.657v-5.239a3.066,3.066,0,0,0-1.3-2.79,2.524,2.524,0,0,0-1.322-.373,3.142,3.142,0,0,0-2.9,1.857,2.565,2.565,0,0,0-1.7-1.792,3.5,3.5,0,0,0-.641-.065,2.982,2.982,0,0,0-2.806,1.76l-.105-1.468H216.1v.527h1.168v6.537a.9.9,0,0,1-.86,1.03,1.962,1.962,0,0,1-.308.016v.527h4.542c0-.308-.081-.47-.251-.511a1.849,1.849,0,0,0-.219-.016Z" transform="translate(-142.066 5.152)" fill="#fff"/>
      <path id="パス_11" data-name="パス 11" d="M239.071,119.466c0-1.865.227-3.066.689-3.585a1.488,1.488,0,0,1,1.184-.47,1.575,1.575,0,0,1,1.638,1.322,10.908,10.908,0,0,1,.235,2.668c0,1.955-.251,3.179-.762,3.682a1.676,1.676,0,0,1-2.741-.86,10.688,10.688,0,0,1-.251-2.757Zm1.979-4.566a4.364,4.364,0,0,0-4.72,4.493,4.65,4.65,0,0,0,8.248,2.928,4.708,4.708,0,0,0,1-2.976,4.26,4.26,0,0,0-1.59-3.512,4.729,4.729,0,0,0-2.944-.933Z" transform="translate(-146.12 5.154)" fill="#fff"/>
      <path id="パス_12" data-name="パス 12" d="M254.951,123.074a3.834,3.834,0,0,0,3.147-1.484,5.115,5.115,0,0,0,1.046-3.309,4.294,4.294,0,0,0-1.622-3.755,3.294,3.294,0,0,0-1.873-.576,3.365,3.365,0,0,0-3.106,2.044V109.83H248.86v.543h1.152V121.29c0,.576-.227.916-.673,1.014a2.923,2.923,0,0,1-.47.032v.543h3.074l.154-1.4a3.34,3.34,0,0,0,2.871,1.606Zm-.284-8.159q1.728.036,1.727,3.65c-.016,2.636-.633,3.966-1.857,3.974q-1.3,0-1.776-1.727a7.246,7.246,0,0,1-.219-1.873q0-2.737,1.168-3.682a1.542,1.542,0,0,1,.965-.341Z" transform="translate(-148.692 6.112)" fill="#fff"/>
      <path id="パス_13" data-name="パス 13" d="M267.294,122.41h-.746V114.3h-3.7v.527h1.168v6.537c0,.6-.235.941-.714,1.014a2.6,2.6,0,0,1-.454.032v.527h4.931c0-.308-.089-.47-.268-.511A1.848,1.848,0,0,0,267.294,122.41Zm-.56-10.73a1.545,1.545,0,0,0-1.508-1.5,1.4,1.4,0,0,0-1.3.779,1.44,1.44,0,0,0-.187.73,1.347,1.347,0,0,0,.779,1.281,1.618,1.618,0,0,0,.714.17,1.392,1.392,0,0,0,1.3-.73A1.419,1.419,0,0,0,266.735,111.68Z" transform="translate(-151.742 6.046)" fill="#fff"/>
      <path id="パス_14" data-name="パス 14" d="M274.918,122.342H273.9V109.82h-4.1v.527h1.557v10.916a.894.894,0,0,1-.657,1,3.843,3.843,0,0,1-.892.081v.527h5.6c0-.308-.081-.47-.251-.511a1.847,1.847,0,0,0-.219-.016Z" transform="translate(-153.055 6.114)" fill="#fff"/>
      <path id="パス_15" data-name="パス 15" d="M282.385,115.411c.852.032,1.289.77,1.3,2.2q0,.949-.56,1.168a3.561,3.561,0,0,1-1.216.105l-1.281-.065c.105-2.214.681-3.349,1.76-3.4Zm3.755,6.35-.487-.17a2.978,2.978,0,0,1-2.741,1.841c-1.07,0-1.768-.681-2.076-2.044a12.124,12.124,0,0,1-.2-2l1.857.049c2.149.065,3.4-.268,3.755-1.014a1.711,1.711,0,0,0,.122-.624,2.615,2.615,0,0,0-1.76-2.5,5.821,5.821,0,0,0-2.214-.406,4.285,4.285,0,0,0-3.528,1.541,4.648,4.648,0,0,0-.965,2.993,4.184,4.184,0,0,0,2.182,4.055,5.12,5.12,0,0,0,2.368.543,3.682,3.682,0,0,0,3.382-1.654,2.435,2.435,0,0,0,.324-.608Z" transform="translate(-154.586 5.154)" fill="#fff"/>
      <path id="パス_16" data-name="パス 16" d="M21.786,120.68H4.06V3.5H119.676v97.929" transform="translate(-2.279 5.702)" fill="none" stroke="#fff" stroke-miterlimit="10" stroke-width="5"/>
    </g>
  </g>
</svg>
